<?xml version="1.0" standalone="no"?>
<!DOCTYPE svg PUBLIC "-//W3C//DTD SVG 20010904//EN"
 "http://www.w3.org/TR/2001/REC-SVG-20010904/DTD/svg10.dtd">
<svg version="1.0" xmlns="http://www.w3.org/2000/svg"
 width="414.000000pt" height="414.000000pt" viewBox="0 0 414.000000 414.000000"
 preserveAspectRatio="xMidYMid meet">
<metadata>
Created by potrace 1.14, written by Peter Selinger 2001-2017
</metadata>
<g transform="translate(0.000000,414.000000) scale(0.100000,-0.100000)"
fill="#000000" stroke="none">
<path d="M291 3150 c-107 -23 -197 -112 -220 -218 -6 -29 -11 -119 -11 -200
l0 -147 43 0 c55 0 64 7 62 50 -2 19 1 35 6 36 5 1 20 1 34 1 63 0 63 0 60
-37 -2 -43 8 -52 60 -50 l40 1 5 146 5 147 235 -130 c129 -72 262 -145 295
-163 186 -102 285 -159 283 -162 -3 -3 -109 -62 -228 -126 -30 -17 -93 -52
-140 -78 -47 -26 -136 -75 -198 -110 -99 -55 -111 -64 -100 -79 82 -106 220
-148 348 -106 70 23 456 235 512 282 93 77 127 194 86 305 -23 64 -44 90 -91
114 -18 10 -43 25 -57 34 -55 38 -783 462 -817 476 -45 19 -154 26 -212 14z"/>
<path d="M165 2581 c-3 -2 -5 -23 -5 -47 0 -40 1 -42 33 -46 60 -7 72 2 74 52
l1 46 -49 0 c-27 0 -52 -2 -54 -5z"/>
<path d="M60 2441 l0 -51 50 0 c28 0 50 5 51 10 1 6 2 27 2 48 l1 37 -52 3
-52 3 0 -50z"/>
<path d="M265 2428 c2 -24 3 -46 4 -50 1 -4 24 -6 51 -5 l50 1 0 48 0 48 -54
0 -53 0 2 -42z"/>
<path d="M162 2303 l3 -48 48 -2 c26 -1 48 1 48 5 1 4 2 26 4 50 l2 42 -54 0
-54 0 3 -47z"/>
<path d="M65 2230 c-2 -3 -4 -25 -3 -47 0 -40 1 -41 37 -45 64 -6 69 -2 68 51
l0 48 -49 0 c-27 0 -51 -3 -53 -7z"/>
<path d="M265 2189 l0 -49 53 0 52 0 0 49 0 49 -53 0 -53 0 1 -49z"/>
<path d="M164 2101 c-2 -2 -4 -23 -4 -47 0 -46 5 -50 64 -49 l40 0 2 51 3 50
-51 0 c-27 -1 -52 -3 -54 -5z"/>
<path d="M269 1983 c-2 -11 -2 -66 0 -80 1 -9 18 -13 51 -13 l50 0 0 50 0 50
-50 0 c-27 0 -50 -3 -51 -7z"/>
<path d="M92 1932 c-32 -3 -32 -4 -30 -50 l3 -47 50 0 50 1 3 46 c3 41 1 46
-20 49 -13 2 -38 3 -56 1z"/>
<path d="M135 1774 c-91 -31 -125 -88 -125 -211 0 -56 7 -99 27 -159 l27 -83
60 -22 c98 -35 98 -35 183 45 l76 72 3 67 c2 63 1 67 -19 68 -169 6 -179 4
-169 -47 4 -22 9 -24 57 -24 l53 0 -4 -37 c-9 -102 -155 -129 -199 -38 -17 38
-21 198 -5 239 21 57 106 80 158 43 17 -12 33 -29 34 -36 2 -10 18 -16 46 -18
l43 -2 -20 27 c-64 87 -96 114 -143 122 -30 4 -60 2 -83 -6z"/>
<path d="M775 1779 c-39 -11 -104 -65 -117 -98 -6 -14 -12 -62 -14 -106 -3
-66 1 -94 22 -160 15 -44 31 -85 38 -91 12 -13 111 -48 141 -50 11 -1 46 23
84 60 36 33 70 66 76 71 17 15 20 145 3 146 -21 1 -142 1 -160 0 -14 -1 -18
-10 -18 -36 l0 -35 56 0 57 0 -6 -42 c-11 -84 -112 -119 -178 -60 -31 28 -32
30 -35 132 -3 126 9 164 61 186 54 22 125 0 139 -44 4 -13 16 -18 39 -17 17 0
34 4 36 8 2 5 -16 32 -40 59 -24 28 -47 55 -50 60 -4 6 -24 12 -45 14 -22 3
-43 6 -49 8 -5 2 -23 -1 -40 -5z"/>
<path d="M1243 1782 c-13 -2 -23 -8 -23 -14 0 -6 -37 -109 -81 -227 -112 -297
-107 -273 -56 -269 l41 3 66 192 c36 105 68 194 71 197 5 5 69 -172 120 -329
l19 -60 45 -2 44 -2 -26 67 c-14 37 -38 101 -53 142 -118 320 -113 311 -167
302z"/>
<path d="M3372 1781 c-21 -5 -37 -41 -118 -251 -51 -135 -94 -246 -94 -247 0
-2 19 -3 43 -3 l43 0 26 78 c63 184 100 287 107 300 5 9 33 -56 77 -182 l69
-196 44 0 c37 0 42 2 36 18 -4 9 -47 120 -95 246 -49 126 -94 232 -102 236 -7
4 -24 4 -36 1z"/>
<path d="M479 1733 c-4 -287 0 -446 10 -452 6 -4 25 -6 41 -3 l29 4 -2 247 -2
246 -37 3 -38 3 -1 -48z"/>
<path d="M1628 1734 c-104 -109 -110 -130 -55 -190 30 -33 40 -37 131 -52 56
-9 100 -21 103 -28 2 -7 -17 -36 -44 -64 -47 -50 -49 -51 -93 -45 -25 4 -59
15 -77 25 l-31 18 -27 -28 -27 -28 23 -16 c73 -47 168 -63 252 -41 60 15 92
45 106 99 25 99 -31 169 -144 181 -85 8 -113 22 -124 59 -8 27 -5 34 20 59 26
24 35 27 80 22 28 -3 65 -13 82 -21 30 -16 31 -16 53 12 13 15 21 31 18 35
-12 19 -75 41 -134 46 l-66 6 -46 -49z"/>
<path d="M1926 1753 c1 -16 2 -31 3 -35 1 -5 33 -8 71 -8 l70 0 0 -213 c0
-118 2 -216 5 -218 2 -3 20 -3 40 -1 l35 4 0 214 0 213 72 3 72 3 1 30 0 30
-186 3 -186 2 3 -27z"/>
<path d="M2349 1713 c0 -61 0 -331 1 -409 0 -26 4 -30 23 -28 12 1 30 3 40 3
15 1 17 13 17 107 l0 105 51 -3 51 -3 51 -100 c28 -55 52 -101 52 -102 3 -7
87 -9 90 -2 3 4 -22 54 -54 113 l-59 106 25 12 c54 26 87 103 72 163 -5 17
-25 46 -44 65 l-36 35 -140 3 -139 4 -1 -69z m269 -23 c30 -28 29 -74 -3 -105
-22 -22 -32 -25 -105 -25 l-80 0 0 75 0 75 83 0 c70 0 87 -3 105 -20z"/>
<path d="M2800 1530 l0 -250 25 -1 c14 0 81 0 150 0 69 0 134 0 145 0 16 1 20
8 20 36 l0 35 -130 0 -130 0 0 73 0 73 108 -1 107 0 3 35 3 35 -108 0 -108 0
-3 71 -3 71 108 1 c168 0 155 -3 151 35 l-3 32 -167 3 -168 2 0 -250z"/>
<path d="M3638 1768 c-3 -11 -2 -427 1 -479 1 -13 34 -18 72 -10 4 0 6 64 5
142 0 77 2 143 5 145 4 2 26 -40 49 -94 24 -53 50 -104 57 -113 11 -14 57 -18
68 -7 2 2 28 55 58 118 l55 115 0 -125 c0 -208 -3 -190 35 -186 17 2 35 4 39
5 4 0 6 112 5 249 l-2 247 -36 3 -36 3 -70 -156 c-39 -86 -75 -156 -79 -156
-5 0 -41 69 -80 153 l-70 153 -36 3 c-23 2 -37 -2 -40 -10z"/>
<path d="M2045 1163 c-54 -10 -69 -16 -91 -40 -48 -52 -19 -133 54 -153 60
-16 131 5 105 31 -8 8 -13 8 -17 0 -11 -17 -102 -14 -120 5 -22 22 -21 96 2
116 18 17 82 18 115 4 23 -11 33 -1 18 18 -14 16 -38 23 -66 19z"/>
<path d="M72 1065 c3 -109 20 -128 28 -30 l5 65 35 -55 c19 -30 38 -55 42 -55
4 0 24 25 44 55 20 30 39 55 41 55 3 0 4 -12 3 -27 -5 -70 0 -115 13 -111 8 3
12 34 13 101 2 119 -8 124 -67 32 -22 -36 -44 -63 -49 -60 -4 2 -25 32 -46 65
-55 87 -65 81 -62 -35z"/>
<path d="M404 1066 c0 -108 -4 -103 90 -101 84 1 87 23 4 27 -65 3 -65 3 -59
48 0 6 24 10 51 10 38 0 50 4 50 15 0 11 -11 15 -42 14 -64 -2 -65 -1 -63 29
1 26 3 27 56 27 85 0 76 20 -11 23 l-76 3 0 -95z"/>
<path d="M652 1063 l3 -98 58 1 c32 1 70 7 85 13 37 16 64 61 56 97 -12 60
-44 80 -137 83 l-68 2 3 -98z m160 59 c8 -6 14 -31 15 -56 2 -61 -18 -78 -88
-74 l-54 3 -2 60 c-1 33 -1 65 2 71 4 14 109 11 127 -4z"/>
<path d="M947 1064 c1 -53 5 -99 7 -101 17 -17 25 19 24 102 0 81 -3 95 -17
95 -14 0 -16 -13 -14 -96z"/>
<path d="M1105 1069 c-46 -90 -54 -127 -23 -96 9 9 18 22 20 28 2 7 29 12 61
13 52 2 59 -1 70 -23 13 -26 37 -40 37 -22 0 26 -91 191 -105 191 -9 0 -34
-38 -60 -91z m94 -29 c-7 -5 -34 -5 -71 -1 -4 1 2 21 14 46 l22 46 22 -43 c12
-24 18 -45 13 -48z"/>
<path d="M1445 1150 c-6 -10 -1 -11 45 -14 24 -1 25 -3 28 -88 2 -72 5 -86 17
-81 12 4 15 24 15 88 l0 82 28 -2 c34 -2 54 4 46 16 -7 12 -171 11 -179 -1z"/>
<path d="M1700 1063 l0 -98 75 0 c55 -1 75 2 75 12 0 9 -17 13 -60 13 l-60 0
0 30 c0 32 2 33 68 31 32 -1 43 2 40 11 -3 8 -23 14 -49 14 -24 1 -47 2 -51 3
-5 1 -8 14 -8 29 0 27 1 28 57 27 36 0 58 4 60 13 4 9 -15 12 -71 12 l-76 0 0
-97z"/>
<path d="M2210 1066 c0 -74 3 -95 15 -100 12 -4 15 4 15 40 l0 45 63 -3 62 -3
-2 -37 c-2 -23 3 -38 11 -41 19 -8 21 4 21 103 -1 72 -3 85 -18 88 -10 2 -17
0 -16 -5 1 -4 1 -24 0 -43 -1 -38 0 -37 -103 -31 -14 1 -18 10 -18 41 0 29 -4
40 -15 40 -12 0 -15 -17 -15 -94z"/>
<path d="M2629 1148 c-4 -45 -3 -171 1 -177 3 -4 35 -7 73 -7 47 1 67 4 67 13
0 9 -17 13 -55 13 -37 0 -55 4 -56 13 -1 6 -1 45 -1 85 0 56 -3 72 -14 72 -8
0 -14 -6 -15 -12z"/>
<path d="M2850 1066 c0 -74 3 -95 15 -100 16 -6 16 -2 16 104 0 85 -1 90 -16
90 -12 0 -15 -17 -15 -94z"/>
<path d="M2990 1059 c0 -76 3 -100 13 -97 7 3 14 31 17 72 l5 68 34 -56 c18
-31 36 -56 40 -56 8 0 41 38 41 48 1 9 36 52 44 52 3 0 6 -24 5 -52 -2 -74 -1
-78 15 -72 18 7 17 185 -1 191 -7 3 -31 -25 -53 -61 -23 -36 -45 -64 -50 -61
-4 3 -25 32 -46 65 -56 86 -64 80 -64 -41z"/>
<path d="M3322 1072 c-1 -48 3 -94 9 -102 16 -26 24 3 23 82 -2 106 -3 108
-18 108 -10 0 -14 -20 -14 -88z"/>
<path d="M3430 1150 c0 -11 3 -12 45 -14 l30 -2 -2 -81 c-1 -62 2 -83 13 -87
16 -6 16 -4 18 99 l1 70 34 0 c19 0 36 6 39 13 3 9 -19 12 -87 12 -54 0 -91
-4 -91 -10z"/>
<path d="M3683 1065 c0 -60 4 -95 11 -97 31 -9 140 -2 143 10 4 9 -13 12 -59
12 l-64 0 0 30 c0 29 1 30 45 31 25 1 49 1 54 0 4 0 7 6 7 14 0 11 -10 14 -45
11 -47 -3 -62 6 -61 39 1 17 8 20 53 20 29 0 58 6 65 13 9 9 -4 12 -68 12
l-80 0 -1 -95z"/>
<path d="M3932 1064 l3 -99 58 1 c74 2 112 18 130 56 19 39 13 76 -18 107 -19
20 -36 25 -100 29 l-76 5 3 -99z m163 53 c16 -22 13 -90 -4 -111 -10 -11 -31
-16 -72 -16 l-59 0 2 74 2 73 59 -2 c43 -1 63 -6 72 -18z"/>
</g>
</svg>
